<?xml version="1.0" encoding="UTF-8" standalone="no"?>
<!DOCTYPE svg PUBLIC "-//W3C//DTD SVG 1.1//EN"
 "http://www.w3.org/Graphics/SVG/1.1/DTD/svg11.dtd">
<!-- Generated by graphviz version 2.40.1 (20161225.0304)
 -->
<!-- Title: snakemake_dag Pages: 1 -->
<svg width="333pt" height="836pt"
 viewBox="0.00 0.00 332.86 836.00" xmlns="http://www.w3.org/2000/svg" xmlns:xlink="http://www.w3.org/1999/xlink">
<g id="graph0" class="graph" transform="scale(1 1) rotate(0) translate(4 832)">
<title>snakemake_dag</title>
<polygon fill="#ffffff" stroke="transparent" points="-4,4 -4,-832 328.8571,-832 328.8571,4 -4,4"/>
<!-- 0 -->
<g id="node1" class="node">
<title>0</title>
<path fill="none" stroke="#d8d356" stroke-width="2" d="M181,-36C181,-36 151,-36 151,-36 145,-36 139,-30 139,-24 139,-24 139,-12 139,-12 139,-6 145,0 151,0 151,0 181,0 181,0 187,0 193,-6 193,-12 193,-12 193,-24 193,-24 193,-30 187,-36 181,-36"/>
<text text-anchor="middle" x="166" y="-15.5" font-family="sans" font-size="10.00" fill="#000000">all</text>
</g>
<!-- 1 -->
<g id="node2" class="node">
<title>1</title>
<path fill="none" stroke="#56d8c1" stroke-width="2" d="M58.5,-180C58.5,-180 15.5,-180 15.5,-180 9.5,-180 3.5,-174 3.5,-168 3.5,-168 3.5,-156 3.5,-156 3.5,-150 9.5,-144 15.5,-144 15.5,-144 58.5,-144 58.5,-144 64.5,-144 70.5,-150 70.5,-156 70.5,-156 70.5,-168 70.5,-168 70.5,-174 64.5,-180 58.5,-180"/>
<text text-anchor="middle" x="37" y="-159.5" font-family="sans" font-size="10.00" fill="#000000">run_salmon</text>
</g>
<!-- 1&#45;&gt;0 -->
<g id="edge2" class="edge">
<title>1&#45;&gt;0</title>
<path fill="none" stroke="#c0c0c0" stroke-width="2" d="M29.0341,-143.7235C21.8783,-124.2213 14.5236,-93.2664 29,-72 40.6705,-54.8556 92.5768,-37.7524 129.0304,-27.5245"/>
<polygon fill="#c0c0c0" stroke="#c0c0c0" stroke-width="2" points="130.1391,-30.8498 138.8561,-24.8278 128.2864,-24.0994 130.1391,-30.8498"/>
</g>
<!-- 2 -->
<g id="node3" class="node">
<title>2</title>
<path fill="none" stroke="#d85656" stroke-width="2" d="M282.5,-108C282.5,-108 187.5,-108 187.5,-108 181.5,-108 175.5,-102 175.5,-96 175.5,-96 175.5,-84 175.5,-84 175.5,-78 181.5,-72 187.5,-72 187.5,-72 282.5,-72 282.5,-72 288.5,-72 294.5,-78 294.5,-84 294.5,-84 294.5,-96 294.5,-96 294.5,-102 288.5,-108 282.5,-108"/>
<text text-anchor="middle" x="235" y="-87.5" font-family="sans" font-size="10.00" fill="#000000">combine_blastp_results</text>
</g>
<!-- 2&#45;&gt;0 -->
<g id="edge1" class="edge">
<title>2&#45;&gt;0</title>
<path fill="none" stroke="#c0c0c0" stroke-width="2" d="M217.5884,-71.8314C209.479,-63.3694 199.6844,-53.1489 190.818,-43.8971"/>
<polygon fill="#c0c0c0" stroke="#c0c0c0" stroke-width="2" points="193.0921,-41.2115 183.646,-36.4133 188.0382,-46.0549 193.0921,-41.2115"/>
</g>
<!-- 3 -->
<g id="node4" class="node">
<title>3</title>
<path fill="none" stroke="#bed856" stroke-width="2" d="M287,-468C287,-468 205,-468 205,-468 199,-468 193,-462 193,-456 193,-456 193,-444 193,-444 193,-438 199,-432 205,-432 205,-432 287,-432 287,-432 293,-432 299,-438 299,-444 299,-444 299,-456 299,-456 299,-462 293,-468 287,-468"/>
<text text-anchor="middle" x="246" y="-447.5" font-family="sans" font-size="10.00" fill="#000000">merge_gtfs_gffcomp</text>
</g>
<!-- 3&#45;&gt;0 -->
<g id="edge3" class="edge">
<title>3&#45;&gt;0</title>
<path fill="none" stroke="#c0c0c0" stroke-width="2" d="M263.4725,-431.6598C286.1907,-405.808 323,-356.179 323,-306 323,-306 323,-306 323,-162 323,-121.1184 330.4283,-103.1906 304,-72 278.7473,-42.1967 234.9044,-28.7506 203.4067,-22.7426"/>
<polygon fill="#c0c0c0" stroke="#c0c0c0" stroke-width="2" points="203.6942,-19.2402 193.2428,-20.9774 202.4964,-26.137 203.6942,-19.2402"/>
</g>
<!-- 11 -->
<g id="node12" class="node">
<title>11</title>
<path fill="none" stroke="#d87556" stroke-width="2" d="M192,-396C192,-396 142,-396 142,-396 136,-396 130,-390 130,-384 130,-384 130,-372 130,-372 130,-366 136,-360 142,-360 142,-360 192,-360 192,-360 198,-360 204,-366 204,-372 204,-372 204,-384 204,-384 204,-390 198,-396 192,-396"/>
<text text-anchor="middle" x="167" y="-375.5" font-family="sans" font-size="10.00" fill="#000000">merge_gtf_st</text>
</g>
<!-- 3&#45;&gt;11 -->
<g id="edge17" class="edge">
<title>3&#45;&gt;11</title>
<path fill="none" stroke="#c0c0c0" stroke-width="2" d="M226.065,-431.8314C216.5217,-423.1337 204.9401,-412.5783 194.5694,-403.1265"/>
<polygon fill="#c0c0c0" stroke="#c0c0c0" stroke-width="2" points="196.6772,-400.3121 186.9287,-396.1628 191.962,-405.4857 196.6772,-400.3121"/>
</g>
<!-- 4 -->
<g id="node5" class="node">
<title>4</title>
<path fill="none" stroke="#56d0d8" stroke-width="2" d="M145.5,-108C145.5,-108 50.5,-108 50.5,-108 44.5,-108 38.5,-102 38.5,-96 38.5,-96 38.5,-84 38.5,-84 38.5,-78 44.5,-72 50.5,-72 50.5,-72 145.5,-72 145.5,-72 151.5,-72 157.5,-78 157.5,-84 157.5,-84 157.5,-96 157.5,-96 157.5,-102 151.5,-108 145.5,-108"/>
<text text-anchor="middle" x="98" y="-87.5" font-family="sans" font-size="10.00" fill="#000000">combine_blastn_results</text>
</g>
<!-- 4&#45;&gt;0 -->
<g id="edge4" class="edge">
<title>4&#45;&gt;0</title>
<path fill="none" stroke="#c0c0c0" stroke-width="2" d="M115.1593,-71.8314C123.1511,-63.3694 132.8038,-53.1489 141.5416,-43.8971"/>
<polygon fill="#c0c0c0" stroke="#c0c0c0" stroke-width="2" points="144.288,-46.0866 148.6097,-36.4133 139.1989,-41.2802 144.288,-46.0866"/>
</g>
<!-- 5 -->
<g id="node6" class="node">
<title>5</title>
<path fill="none" stroke="#9fd856" stroke-width="2" d="M90,-252C90,-252 12,-252 12,-252 6,-252 0,-246 0,-240 0,-240 0,-228 0,-228 0,-222 6,-216 12,-216 12,-216 90,-216 90,-216 96,-216 102,-222 102,-228 102,-228 102,-240 102,-240 102,-246 96,-252 90,-252"/>
<text text-anchor="middle" x="51" y="-231.5" font-family="sans" font-size="10.00" fill="#000000">build_salmon_index</text>
</g>
<!-- 5&#45;&gt;1 -->
<g id="edge5" class="edge">
<title>5&#45;&gt;1</title>
<path fill="none" stroke="#c0c0c0" stroke-width="2" d="M47.4672,-215.8314C45.9699,-208.131 44.1895,-198.9743 42.5255,-190.4166"/>
<polygon fill="#c0c0c0" stroke="#c0c0c0" stroke-width="2" points="45.9248,-189.5614 40.5804,-180.4133 39.0535,-190.8975 45.9248,-189.5614"/>
</g>
<!-- 6 -->
<g id="node7" class="node">
<title>6</title>
<path fill="none" stroke="#5692d8" stroke-width="2" d="M198,-180C198,-180 166,-180 166,-180 160,-180 154,-174 154,-168 154,-168 154,-156 154,-156 154,-150 160,-144 166,-144 166,-144 198,-144 198,-144 204,-144 210,-150 210,-156 210,-156 210,-168 210,-168 210,-174 204,-180 198,-180"/>
<text text-anchor="middle" x="182" y="-159.5" font-family="sans" font-size="10.00" fill="#000000">run_blast</text>
</g>
<!-- 6&#45;&gt;2 -->
<g id="edge6" class="edge">
<title>6&#45;&gt;2</title>
<path fill="none" stroke="#c0c0c0" stroke-width="2" d="M195.3741,-143.8314C201.4162,-135.6232 208.6763,-125.7606 215.3221,-116.7323"/>
<polygon fill="#c0c0c0" stroke="#c0c0c0" stroke-width="2" points="218.3363,-118.5415 221.4458,-108.4133 212.6989,-114.3918 218.3363,-118.5415"/>
</g>
<!-- 6&#45;&gt;4 -->
<g id="edge8" class="edge">
<title>6&#45;&gt;4</title>
<path fill="none" stroke="#c0c0c0" stroke-width="2" d="M160.8033,-143.8314C150.5566,-135.0485 138.0997,-124.3712 126.9903,-114.8489"/>
<polygon fill="#c0c0c0" stroke="#c0c0c0" stroke-width="2" points="129.0603,-112.0134 119.19,-108.1628 124.5048,-117.3282 129.0603,-112.0134"/>
</g>
<!-- 7 -->
<g id="node8" class="node">
<title>7</title>
<path fill="none" stroke="#56d8a2" stroke-width="2" d="M188,-540C188,-540 142,-540 142,-540 136,-540 130,-534 130,-528 130,-528 130,-516 130,-516 130,-510 136,-504 142,-504 142,-504 188,-504 188,-504 194,-504 200,-510 200,-516 200,-516 200,-528 200,-528 200,-534 194,-540 188,-540"/>
<text text-anchor="middle" x="165" y="-519.5" font-family="sans" font-size="10.00" fill="#000000">run_stringtie</text>
</g>
<!-- 7&#45;&gt;3 -->
<g id="edge7" class="edge">
<title>7&#45;&gt;3</title>
<path fill="none" stroke="#c0c0c0" stroke-width="2" d="M185.4397,-503.8314C195.3205,-495.0485 207.3324,-484.3712 218.045,-474.8489"/>
<polygon fill="#c0c0c0" stroke="#c0c0c0" stroke-width="2" points="220.418,-477.4224 225.5668,-468.1628 215.7674,-472.1906 220.418,-477.4224"/>
</g>
<!-- 7&#45;&gt;11 -->
<g id="edge16" class="edge">
<title>7&#45;&gt;11</title>
<path fill="none" stroke="#c0c0c0" stroke-width="2" d="M165.2533,-503.7623C165.5944,-479.201 166.2049,-435.2474 166.6062,-406.3541"/>
<polygon fill="#c0c0c0" stroke="#c0c0c0" stroke-width="2" points="170.1094,-406.1373 166.7488,-396.0896 163.1101,-406.04 170.1094,-406.1373"/>
</g>
<!-- 8 -->
<g id="node9" class="node">
<title>8</title>
<path fill="none" stroke="#56b1d8" stroke-width="2" d="M99,-324C99,-324 37,-324 37,-324 31,-324 25,-318 25,-312 25,-312 25,-300 25,-300 25,-294 31,-288 37,-288 37,-288 99,-288 99,-288 105,-288 111,-294 111,-300 111,-300 111,-312 111,-312 111,-318 105,-324 99,-324"/>
<text text-anchor="middle" x="68" y="-303.5" font-family="sans" font-size="10.00" fill="#000000">extract_tx_seqs</text>
</g>
<!-- 8&#45;&gt;5 -->
<g id="edge9" class="edge">
<title>8&#45;&gt;5</title>
<path fill="none" stroke="#c0c0c0" stroke-width="2" d="M63.7102,-287.8314C61.892,-280.131 59.7301,-270.9743 57.7095,-262.4166"/>
<polygon fill="#c0c0c0" stroke="#c0c0c0" stroke-width="2" points="61.0519,-261.3414 55.3476,-252.4133 54.2392,-262.95 61.0519,-261.3414"/>
</g>
<!-- 9 -->
<g id="node10" class="node">
<title>9</title>
<path fill="none" stroke="#56d882" stroke-width="2" d="M218.5,-252C218.5,-252 145.5,-252 145.5,-252 139.5,-252 133.5,-246 133.5,-240 133.5,-240 133.5,-228 133.5,-228 133.5,-222 139.5,-216 145.5,-216 145.5,-216 218.5,-216 218.5,-216 224.5,-216 230.5,-222 230.5,-228 230.5,-228 230.5,-240 230.5,-240 230.5,-246 224.5,-252 218.5,-252"/>
<text text-anchor="middle" x="182" y="-231.5" font-family="sans" font-size="10.00" fill="#000000">run_trans_decoder</text>
</g>
<!-- 9&#45;&gt;6 -->
<g id="edge10" class="edge">
<title>9&#45;&gt;6</title>
<path fill="none" stroke="#c0c0c0" stroke-width="2" d="M182,-215.8314C182,-208.131 182,-198.9743 182,-190.4166"/>
<polygon fill="#c0c0c0" stroke="#c0c0c0" stroke-width="2" points="185.5001,-190.4132 182,-180.4133 178.5001,-190.4133 185.5001,-190.4132"/>
</g>
<!-- 10 -->
<g id="node11" class="node">
<title>10</title>
<path fill="none" stroke="#d8b456" stroke-width="2" d="M180,-612C180,-612 142,-612 142,-612 136,-612 130,-606 130,-600 130,-600 130,-588 130,-588 130,-582 136,-576 142,-576 142,-576 180,-576 180,-576 186,-576 192,-582 192,-588 192,-588 192,-600 192,-600 192,-606 186,-612 180,-612"/>
<text text-anchor="middle" x="161" y="-591.5" font-family="sans" font-size="10.00" fill="#000000">sort_bams</text>
</g>
<!-- 10&#45;&gt;7 -->
<g id="edge11" class="edge">
<title>10&#45;&gt;7</title>
<path fill="none" stroke="#c0c0c0" stroke-width="2" d="M162.0094,-575.8314C162.4372,-568.131 162.9459,-558.9743 163.4213,-550.4166"/>
<polygon fill="#c0c0c0" stroke="#c0c0c0" stroke-width="2" points="166.9169,-550.592 163.977,-540.4133 159.9276,-550.2037 166.9169,-550.592"/>
</g>
<!-- 11&#45;&gt;8 -->
<g id="edge12" class="edge">
<title>11&#45;&gt;8</title>
<path fill="none" stroke="#c0c0c0" stroke-width="2" d="M142.0181,-359.8314C129.7072,-350.8779 114.6893,-339.9558 101.4063,-330.2955"/>
<polygon fill="#c0c0c0" stroke="#c0c0c0" stroke-width="2" points="103.1199,-327.214 92.9739,-324.1628 99.0027,-332.8752 103.1199,-327.214"/>
</g>
<!-- 13 -->
<g id="node14" class="node">
<title>13</title>
<path fill="none" stroke="#d89556" stroke-width="2" d="M223,-324C223,-324 141,-324 141,-324 135,-324 129,-318 129,-312 129,-312 129,-300 129,-300 129,-294 135,-288 141,-288 141,-288 223,-288 223,-288 229,-288 235,-294 235,-300 235,-300 235,-312 235,-312 235,-318 229,-324 223,-324"/>
<text text-anchor="middle" x="182" y="-303.5" font-family="sans" font-size="10.00" fill="#000000">make_blast_bundles</text>
</g>
<!-- 11&#45;&gt;13 -->
<g id="edge18" class="edge">
<title>11&#45;&gt;13</title>
<path fill="none" stroke="#c0c0c0" stroke-width="2" d="M170.7851,-359.8314C172.3894,-352.131 174.297,-342.9743 176.0799,-334.4166"/>
<polygon fill="#c0c0c0" stroke="#c0c0c0" stroke-width="2" points="179.5507,-334.9169 178.1639,-324.4133 172.6979,-333.4892 179.5507,-334.9169"/>
</g>
<!-- 12 -->
<g id="node13" class="node">
<title>12</title>
<path fill="none" stroke="#5673d8" stroke-width="2" d="M142.5,-828C142.5,-828 69.5,-828 69.5,-828 63.5,-828 57.5,-822 57.5,-816 57.5,-816 57.5,-804 57.5,-804 57.5,-798 63.5,-792 69.5,-792 69.5,-792 142.5,-792 142.5,-792 148.5,-792 154.5,-798 154.5,-804 154.5,-804 154.5,-816 154.5,-816 154.5,-822 148.5,-828 142.5,-828"/>
<text text-anchor="middle" x="106" y="-807.5" font-family="sans" font-size="10.00" fill="#000000">downloadGencode</text>
</g>
<!-- 12&#45;&gt;8 -->
<g id="edge13" class="edge">
<title>12&#45;&gt;8</title>
<path fill="none" stroke="#c0c0c0" stroke-width="2" d="M98.1533,-791.746C87.2922,-764.7781 69,-712.4617 69,-666 69,-666 69,-666 69,-450 69,-409.875 68.6069,-363.4624 68.3137,-334.4173"/>
<polygon fill="#c0c0c0" stroke="#c0c0c0" stroke-width="2" points="71.8112,-334.1481 68.2072,-324.1851 64.8115,-334.221 71.8112,-334.1481"/>
</g>
<!-- 15 -->
<g id="node16" class="node">
<title>15</title>
<path fill="none" stroke="#88d856" stroke-width="2" d="M181,-756C181,-756 113,-756 113,-756 107,-756 101,-750 101,-744 101,-744 101,-732 101,-732 101,-726 107,-720 113,-720 113,-720 181,-720 181,-720 187,-720 193,-726 193,-732 193,-732 193,-744 193,-744 193,-750 187,-756 181,-756"/>
<text text-anchor="middle" x="147" y="-735.5" font-family="sans" font-size="10.00" fill="#000000">build_STARindex</text>
</g>
<!-- 12&#45;&gt;15 -->
<g id="edge20" class="edge">
<title>12&#45;&gt;15</title>
<path fill="none" stroke="#c0c0c0" stroke-width="2" d="M116.346,-791.8314C120.9237,-783.7925 126.4052,-774.1666 131.4588,-765.2918"/>
<polygon fill="#c0c0c0" stroke="#c0c0c0" stroke-width="2" points="134.6077,-766.8351 136.5147,-756.4133 128.5248,-763.3712 134.6077,-766.8351"/>
</g>
<!-- 13&#45;&gt;9 -->
<g id="edge14" class="edge">
<title>13&#45;&gt;9</title>
<path fill="none" stroke="#c0c0c0" stroke-width="2" d="M182,-287.8314C182,-280.131 182,-270.9743 182,-262.4166"/>
<polygon fill="#c0c0c0" stroke="#c0c0c0" stroke-width="2" points="185.5001,-262.4132 182,-252.4133 178.5001,-262.4133 185.5001,-262.4132"/>
</g>
<!-- 14 -->
<g id="node15" class="node">
<title>14</title>
<path fill="none" stroke="#56d863" stroke-width="2" d="M203,-684C203,-684 117,-684 117,-684 111,-684 105,-678 105,-672 105,-672 105,-660 105,-660 105,-654 111,-648 117,-648 117,-648 203,-648 203,-648 209,-648 215,-654 215,-660 215,-660 215,-672 215,-672 215,-678 209,-684 203,-684"/>
<text text-anchor="middle" x="160" y="-663.5" font-family="sans" font-size="10.00" fill="#000000">run_STAR_alignment</text>
</g>
<!-- 14&#45;&gt;10 -->
<g id="edge15" class="edge">
<title>14&#45;&gt;10</title>
<path fill="none" stroke="#c0c0c0" stroke-width="2" d="M160.2523,-647.8314C160.3593,-640.131 160.4865,-630.9743 160.6053,-622.4166"/>
<polygon fill="#c0c0c0" stroke="#c0c0c0" stroke-width="2" points="164.1049,-622.4609 160.7443,-612.4133 157.1056,-622.3637 164.1049,-622.4609"/>
</g>
<!-- 15&#45;&gt;14 -->
<g id="edge19" class="edge">
<title>15&#45;&gt;14</title>
<path fill="none" stroke="#c0c0c0" stroke-width="2" d="M150.2804,-719.8314C151.6708,-712.131 153.3241,-702.9743 154.8692,-694.4166"/>
<polygon fill="#c0c0c0" stroke="#c0c0c0" stroke-width="2" points="158.3428,-694.8761 156.6754,-684.4133 151.4542,-693.6322 158.3428,-694.8761"/>
</g>
</g>
</svg>
